<svg width="64" height="64" viewBox="0 0 64 64" fill="none" xmlns="http://www.w3.org/2000/svg">
<rect width="64" height="64" rx="32" fill="#006C33"/>
<path d="M39.267 46.3332C37.7603 46.3332 36.1737 45.9732 34.5337 45.2798C32.9337 44.5998 31.3203 43.6665 29.747 42.5332C28.187 41.3865 26.6803 40.1065 25.2537 38.7065C23.8403 37.2798 22.5603 35.7732 21.427 34.2265C20.2803 32.6265 19.3603 31.0265 18.707 29.4798C18.0137 27.8265 17.667 26.2265 17.667 24.7198C17.667 23.6798 17.8537 22.6932 18.2137 21.7732C18.587 20.8265 19.187 19.9465 20.0003 19.1865C21.027 18.1732 22.2003 17.6665 23.4537 17.6665C23.9737 17.6665 24.507 17.7865 24.9603 17.9998C25.4803 18.2398 25.9203 18.5998 26.2403 19.0798L29.3337 23.4398C29.6137 23.8265 29.827 24.1998 29.9737 24.5732C30.147 24.9732 30.2403 25.3732 30.2403 25.7598C30.2403 26.2665 30.0937 26.7598 29.8137 27.2265C29.6137 27.5865 29.307 27.9732 28.9203 28.3598L28.0137 29.3065C28.027 29.3465 28.0403 29.3732 28.0537 29.3998C28.2137 29.6798 28.5337 30.1598 29.147 30.8798C29.8003 31.6265 30.4137 32.3065 31.027 32.9332C31.8137 33.7065 32.467 34.3198 33.0803 34.8265C33.8403 35.4665 34.3337 35.7865 34.627 35.9332L34.6003 35.9998L35.5737 35.0398C35.987 34.6265 36.387 34.3198 36.7737 34.1198C37.507 33.6665 38.4403 33.5865 39.3737 33.9732C39.7203 34.1198 40.0937 34.3198 40.4937 34.5998L44.9203 37.7465C45.4137 38.0798 45.7737 38.5065 45.987 39.0132C46.187 39.5198 46.2803 39.9865 46.2803 40.4532C46.2803 41.0932 46.1337 41.7332 45.8537 42.3332C45.5737 42.9332 45.227 43.4532 44.787 43.9332C44.027 44.7732 43.2003 45.3732 42.2403 45.7598C41.3203 46.1332 40.3203 46.3332 39.267 46.3332ZM23.4537 19.6665C22.7203 19.6665 22.0403 19.9865 21.387 20.6265C20.7737 21.1998 20.347 21.8265 20.0803 22.5065C19.8003 23.1998 19.667 23.9332 19.667 24.7198C19.667 25.9598 19.9603 27.3065 20.547 28.6932C21.147 30.1065 21.987 31.5732 23.0537 33.0398C24.1203 34.5065 25.3337 35.9332 26.667 37.2798C28.0003 38.5998 29.4403 39.8265 30.9203 40.9065C32.3603 41.9598 33.8403 42.8132 35.307 43.4265C37.587 44.3998 39.7203 44.6265 41.4803 43.8932C42.1603 43.6132 42.7603 43.1865 43.307 42.5732C43.6137 42.2398 43.8537 41.8798 44.0537 41.4532C44.2137 41.1198 44.2937 40.7732 44.2937 40.4265C44.2937 40.2132 44.2537 39.9998 44.147 39.7598C44.107 39.6798 44.027 39.5332 43.7737 39.3598L39.347 36.2132C39.0803 36.0265 38.8403 35.8932 38.6137 35.7998C38.3203 35.6798 38.2003 35.5598 37.747 35.8398C37.4803 35.9732 37.2403 36.1732 36.9737 36.4398L35.9603 37.4398C35.4403 37.9465 34.6403 38.0665 34.027 37.8398L33.667 37.6798C33.1203 37.3865 32.4803 36.9332 31.7737 36.3332C31.1337 35.7865 30.4403 35.1465 29.6003 34.3198C28.947 33.6532 28.2937 32.9465 27.6137 32.1598C26.987 31.4265 26.5337 30.7998 26.2537 30.2798L26.0937 29.8798C26.0137 29.5732 25.987 29.3998 25.987 29.2132C25.987 28.7332 26.1603 28.3065 26.4937 27.9732L27.4937 26.9332C27.7603 26.6665 27.9603 26.4132 28.0937 26.1865C28.2003 26.0132 28.2403 25.8665 28.2403 25.7332C28.2403 25.6265 28.2003 25.4665 28.1337 25.3065C28.0403 25.0932 27.8937 24.8532 27.707 24.5998L24.6137 20.2265C24.4803 20.0398 24.3203 19.9065 24.1203 19.8132C23.907 19.7198 23.6803 19.6665 23.4537 19.6665ZM34.6003 36.0132L34.387 36.9198L34.747 35.9865C34.6803 35.9732 34.627 35.9865 34.6003 36.0132Z" fill="#AACEBB"/>
<path d="M39.267 46.3332C37.7603 46.3332 36.1737 45.9732 34.5337 45.2798C32.9337 44.5998 31.3203 43.6665 29.747 42.5332C28.187 41.3865 26.6803 40.1065 25.2537 38.7065C23.8403 37.2798 22.5603 35.7732 21.427 34.2265C20.2803 32.6265 19.3603 31.0265 18.707 29.4798C18.0137 27.8265 17.667 26.2265 17.667 24.7198C17.667 23.6798 17.8537 22.6932 18.2137 21.7732C18.587 20.8265 19.187 19.9465 20.0003 19.1865C21.027 18.1732 22.2003 17.6665 23.4537 17.6665C23.9737 17.6665 24.507 17.7865 24.9603 17.9998C25.4803 18.2398 25.9203 18.5998 26.2403 19.0798L29.3337 23.4398C29.6137 23.8265 29.827 24.1998 29.9737 24.5732C30.147 24.9732 30.2403 25.3732 30.2403 25.7598C30.2403 26.2665 30.0937 26.7598 29.8137 27.2265C29.6137 27.5865 29.307 27.9732 28.9203 28.3598L28.0137 29.3065C28.027 29.3465 28.0403 29.3732 28.0537 29.3998C28.2137 29.6798 28.5337 30.1598 29.147 30.8798C29.8003 31.6265 30.4137 32.3065 31.027 32.9332C31.8137 33.7065 32.467 34.3198 33.0803 34.8265C33.8403 35.4665 34.3337 35.7865 34.627 35.9332L34.6003 35.9998L35.5737 35.0398C35.987 34.6265 36.387 34.3198 36.7737 34.1198C37.507 33.6665 38.4403 33.5865 39.3737 33.9732C39.7203 34.1198 40.0937 34.3198 40.4937 34.5998L44.9203 37.7465C45.4137 38.0798 45.7737 38.5065 45.987 39.0132C46.187 39.5198 46.2803 39.9865 46.2803 40.4532C46.2803 41.0932 46.1337 41.7332 45.8537 42.3332C45.5737 42.9332 45.227 43.4532 44.787 43.9332C44.027 44.7732 43.2003 45.3732 42.2403 45.7598C41.3203 46.1332 40.3203 46.3332 39.267 46.3332ZM23.4537 19.6665C22.7203 19.6665 22.0403 19.9865 21.387 20.6265C20.7737 21.1998 20.347 21.8265 20.0803 22.5065C19.8003 23.1998 19.667 23.9332 19.667 24.7198C19.667 25.9598 19.9603 27.3065 20.547 28.6932C21.147 30.1065 21.987 31.5732 23.0537 33.0398C24.1203 34.5065 25.3337 35.9332 26.667 37.2798C28.0003 38.5998 29.4403 39.8265 30.9203 40.9065C32.3603 41.9598 33.8403 42.8132 35.307 43.4265C37.587 44.3998 39.7203 44.6265 41.4803 43.8932C42.1603 43.6132 42.7603 43.1865 43.307 42.5732C43.6137 42.2398 43.8537 41.8798 44.0537 41.4532C44.2137 41.1198 44.2937 40.7732 44.2937 40.4265C44.2937 40.2132 44.2537 39.9998 44.147 39.7598C44.107 39.6798 44.027 39.5332 43.7737 39.3598L39.347 36.2132C39.0803 36.0265 38.8403 35.8932 38.6137 35.7998C38.3203 35.6798 38.2003 35.5598 37.747 35.8398C37.4803 35.9732 37.2403 36.1732 36.9737 36.4398L35.9603 37.4398C35.4403 37.9465 34.6403 38.0665 34.027 37.8398L33.667 37.6798C33.1203 37.3865 32.4803 36.9332 31.7737 36.3332C31.1337 35.7865 30.4403 35.1465 29.6003 34.3198C28.947 33.6532 28.2937 32.9465 27.6137 32.1598C26.987 31.4265 26.5337 30.7998 26.2537 30.2798L26.0937 29.8798C26.0137 29.5732 25.987 29.3998 25.987 29.2132C25.987 28.7332 26.1603 28.3065 26.4937 27.9732L27.4937 26.9332C27.7603 26.6665 27.9603 26.4132 28.0937 26.1865C28.2003 26.0132 28.2403 25.8665 28.2403 25.7332C28.2403 25.6265 28.2003 25.4665 28.1337 25.3065C28.0403 25.0932 27.8937 24.8532 27.707 24.5998L24.6137 20.2265C24.4803 20.0398 24.3203 19.9065 24.1203 19.8132C23.907 19.7198 23.6803 19.6665 23.4537 19.6665ZM34.6003 36.0132L34.387 36.9198L34.747 35.9865C34.6803 35.9732 34.627 35.9865 34.6003 36.0132Z" fill="white" fill-opacity="0.92"/>
<path d="M40.6667 29.0002C40.12 29.0002 39.6667 28.5468 39.6667 28.0002C39.6667 27.5202 39.1867 26.5202 38.3867 25.6668C37.6 24.8268 36.7333 24.3335 36 24.3335C35.4533 24.3335 35 23.8802 35 23.3335C35 22.7868 35.4533 22.3335 36 22.3335C37.2933 22.3335 38.6533 23.0268 39.84 24.2935C40.9467 25.4802 41.6667 26.9335 41.6667 28.0002C41.6667 28.5468 41.2133 29.0002 40.6667 29.0002Z" fill="#AACEBB"/>
<path d="M40.6667 29.0002C40.12 29.0002 39.6667 28.5468 39.6667 28.0002C39.6667 27.5202 39.1867 26.5202 38.3867 25.6668C37.6 24.8268 36.7333 24.3335 36 24.3335C35.4533 24.3335 35 23.8802 35 23.3335C35 22.7868 35.4533 22.3335 36 22.3335C37.2933 22.3335 38.6533 23.0268 39.84 24.2935C40.9467 25.4802 41.6667 26.9335 41.6667 28.0002C41.6667 28.5468 41.2133 29.0002 40.6667 29.0002Z" fill="white" fill-opacity="0.92"/>
<path d="M45.3333 28.9998C44.7867 28.9998 44.3333 28.5465 44.3333 27.9998C44.3333 23.3998 40.6 19.6665 36 19.6665C35.4533 19.6665 35 19.2132 35 18.6665C35 18.1198 35.4533 17.6665 36 17.6665C41.6933 17.6665 46.3333 22.3065 46.3333 27.9998C46.3333 28.5465 45.88 28.9998 45.3333 28.9998Z" fill="#80B599"/>
<path d="M45.3333 28.9998C44.7867 28.9998 44.3333 28.5465 44.3333 27.9998C44.3333 23.3998 40.6 19.6665 36 19.6665C35.4533 19.6665 35 19.2132 35 18.6665C35 18.1198 35.4533 17.6665 36 17.6665C41.6933 17.6665 46.3333 22.3065 46.3333 27.9998C46.3333 28.5465 45.88 28.9998 45.3333 28.9998Z" fill="white" fill-opacity="0.8"/>
</svg>
