<svg width="20" height="20" viewBox="0 0 20 20" fill="none" xmlns="http://www.w3.org/2000/svg">
<g opacity="0.4">
<path d="M13.491 1.66675H6.50768C3.47435 1.66675 1.66602 3.47508 1.66602 6.50841V13.4834C1.66602 16.5251 3.47435 18.3334 6.50768 18.3334H13.4827C16.516 18.3334 18.3243 16.5251 18.3243 13.4917V6.50841C18.3327 3.47508 16.5243 1.66675 13.491 1.66675Z" fill="#C8CCD0"/>
<path d="M13.491 1.66675H6.50768C3.47435 1.66675 1.66602 3.47508 1.66602 6.50841V13.4834C1.66602 16.5251 3.47435 18.3334 6.50768 18.3334H13.4827C16.516 18.3334 18.3243 16.5251 18.3243 13.4917V6.50841C18.3327 3.47508 16.5243 1.66675 13.491 1.66675Z" fill="black" fill-opacity="0.2"/>
</g>
<path d="M13.9775 13.0937L10.8839 10.0001L13.9775 6.90652C14.2191 6.66493 14.2191 6.26424 13.9775 6.02264C13.7359 5.78105 13.3352 5.78105 13.0936 6.02264L10 9.11623L6.90641 6.02264C6.66481 5.78105 6.26412 5.78105 6.02252 6.02264C5.78093 6.26424 5.78093 6.66493 6.02252 6.90652L9.11612 10.0001L6.02252 13.0937C5.78093 13.3353 5.78093 13.736 6.02252 13.9776C6.26412 14.2192 6.66481 14.2192 6.90641 13.9776L10 10.884L13.0936 13.9776C13.3352 14.2192 13.7359 14.2192 13.9775 13.9776C14.2191 13.736 14.2191 13.3353 13.9775 13.0937Z" fill="#C8CCD0"/>
<path d="M13.9775 13.0937L10.8839 10.0001L13.9775 6.90652C14.2191 6.66493 14.2191 6.26424 13.9775 6.02264C13.7359 5.78105 13.3352 5.78105 13.0936 6.02264L10 9.11623L6.90641 6.02264C6.66481 5.78105 6.26412 5.78105 6.02252 6.02264C5.78093 6.26424 5.78093 6.66493 6.02252 6.90652L9.11612 10.0001L6.02252 13.0937C5.78093 13.3353 5.78093 13.736 6.02252 13.9776C6.26412 14.2192 6.66481 14.2192 6.90641 13.9776L10 10.884L13.0936 13.9776C13.3352 14.2192 13.7359 14.2192 13.9775 13.9776C14.2191 13.736 14.2191 13.3353 13.9775 13.0937Z" fill="black" fill-opacity="0.2"/>
</svg>
