<svg width="20" height="20" viewBox="0 0 20 20" fill="none" xmlns="http://www.w3.org/2000/svg">
<path opacity="0.4" d="M14.2508 1.66675H10.7508C7.87578 1.66675 6.70911 2.80841 6.67578 5.62508H9.25078C12.7508 5.62508 14.3758 7.25008 14.3758 10.7501V13.3251C17.1924 13.2917 18.3341 12.1251 18.3341 9.25008V5.75008C18.3341 2.83341 17.1674 1.66675 14.2508 1.66675Z" fill="white"/>
<path d="M9.24935 6.66675H5.74935C2.83268 6.66675 1.66602 7.83341 1.66602 10.7501V14.2501C1.66602 17.1667 2.83268 18.3334 5.74935 18.3334H9.24935C12.166 18.3334 13.3327 17.1667 13.3327 14.2501V10.7501C13.3327 7.83341 12.166 6.66675 9.24935 6.66675ZM10.241 11.3751L7.14935 14.4667C7.03268 14.5834 6.88268 14.6417 6.72435 14.6417C6.56602 14.6417 6.41602 14.5834 6.29935 14.4667L4.74935 12.9167C4.51602 12.6834 4.51602 12.3084 4.74935 12.0751C4.98268 11.8417 5.35768 11.8417 5.59102 12.0751L6.71602 13.2001L9.39102 10.5251C9.62435 10.2917 9.99935 10.2917 10.2327 10.5251C10.466 10.7584 10.4743 11.1417 10.241 11.3751Z" fill="white"/>
</svg>
