<svg width="16" height="16" viewBox="0 0 16 16" fill="none" xmlns="http://www.w3.org/2000/svg">
<path d="M6 11.8333C5.93333 11.8333 5.87333 11.8199 5.80667 11.7933C5.62 11.7199 5.5 11.5333 5.5 11.3333V7.33325C5.5 7.05992 5.72667 6.83325 6 6.83325C6.27333 6.83325 6.5 7.05992 6.5 7.33325V10.1266L6.98 9.64659C7.17333 9.45325 7.49333 9.45325 7.68667 9.64659C7.88 9.83992 7.88 10.1599 7.68667 10.3533L6.35333 11.6866C6.26 11.7799 6.12667 11.8333 6 11.8333Z" fill="#4D5154"/>
<path d="M5.99964 11.8334C5.87297 11.8334 5.7463 11.7867 5.6463 11.6867L4.31297 10.3534C4.11964 10.16 4.11964 9.84004 4.31297 9.64671C4.5063 9.45338 4.8263 9.45338 5.01964 9.64671L6.35297 10.98C6.5463 11.1734 6.5463 11.4934 6.35297 11.6867C6.25297 11.7867 6.1263 11.8334 5.99964 11.8334Z" fill="#4D5154"/>
<path d="M10.0007 15.1666H6.00065C2.38065 15.1666 0.833984 13.6199 0.833984 9.99992V5.99992C0.833984 2.37992 2.38065 0.833252 6.00065 0.833252H9.33398C9.60732 0.833252 9.83398 1.05992 9.83398 1.33325C9.83398 1.60659 9.60732 1.83325 9.33398 1.83325H6.00065C2.92732 1.83325 1.83398 2.92659 1.83398 5.99992V9.99992C1.83398 13.0733 2.92732 14.1666 6.00065 14.1666H10.0007C13.074 14.1666 14.1673 13.0733 14.1673 9.99992V6.66659C14.1673 6.39325 14.394 6.16659 14.6673 6.16659C14.9407 6.16659 15.1673 6.39325 15.1673 6.66659V9.99992C15.1673 13.6199 13.6207 15.1666 10.0007 15.1666Z" fill="#4D5154"/>
<path d="M14.6673 7.16658H12.0007C9.72065 7.16658 8.83398 6.27991 8.83398 3.99991V1.33324C8.83398 1.13324 8.95398 0.946578 9.14065 0.873244C9.32732 0.793244 9.54065 0.839911 9.68732 0.979911L15.0207 6.31324C15.1607 6.45324 15.2073 6.67324 15.1273 6.85991C15.0473 7.04658 14.8673 7.16658 14.6673 7.16658ZM9.83398 2.53991V3.99991C9.83398 5.71991 10.2807 6.16658 12.0007 6.16658H13.4607L9.83398 2.53991Z" fill="#4D5154"/>
</svg>
