<svg width="25" height="24" viewBox="0 0 25 24" fill="none" xmlns="http://www.w3.org/2000/svg">
<path d="M14.5372 9.47004L9.47725 14.53C8.82725 13.88 8.42725 12.99 8.42725 12C8.42725 10.02 10.0272 8.42004 12.0072 8.42004C12.9972 8.42004 13.8872 8.82004 14.5372 9.47004Z" stroke="#292D32" stroke-width="1.5" stroke-linecap="round" stroke-linejoin="round"/>
<path d="M17.8272 5.76998C16.0772 4.44998 14.0772 3.72998 12.0072 3.72998C8.47717 3.72998 5.18717 5.80998 2.89717 9.40998C1.99717 10.82 1.99717 13.19 2.89717 14.6C3.68717 15.84 4.60717 16.91 5.60717 17.77" stroke="#292D32" stroke-width="1.5" stroke-linecap="round" stroke-linejoin="round"/>
<path opacity="0.4" d="M8.42725 19.5301C9.56725 20.0101 10.7772 20.2701 12.0072 20.2701C15.5372 20.2701 18.8272 18.1901 21.1172 14.5901C22.0172 13.1801 22.0172 10.8101 21.1172 9.40005C20.7872 8.88005 20.4272 8.39005 20.0572 7.93005" stroke="#292D32" stroke-width="1.5" stroke-linecap="round" stroke-linejoin="round"/>
<path opacity="0.4" d="M15.5173 12.7C15.2573 14.11 14.1073 15.26 12.6973 15.52" stroke="#292D32" stroke-width="1.5" stroke-linecap="round" stroke-linejoin="round"/>
<path d="M9.47732 14.53L2.00732 22" stroke="#292D32" stroke-width="1.5" stroke-linecap="round" stroke-linejoin="round"/>
<path d="M22.0071 2L14.5371 9.47" stroke="#292D32" stroke-width="1.5" stroke-linecap="round" stroke-linejoin="round"/>
</svg>
