<svg width="40" height="40" viewBox="0 0 40 40" fill="none" xmlns="http://www.w3.org/2000/svg">
<rect width="40" height="40" rx="20" fill="#2EB955"/>
<rect width="40" height="40" rx="20" fill="white" fill-opacity="0.9"/>
<path opacity="0.4" d="M13.0301 24.9496L13.0301 24.9496L13.0278 24.9479C12.7843 24.7681 12.5345 24.4518 12.3445 24.0707C12.1547 23.6901 12.0508 23.297 12.0508 22.9901V14.8901C12.0508 14.4464 12.2225 13.9512 12.5234 13.5155C12.8241 13.0802 13.2258 12.745 13.6375 12.5878L19.1336 10.5293C19.134 10.5291 19.1344 10.529 19.1348 10.5288C19.3472 10.4508 19.6609 10.4027 19.9979 10.4038C20.3363 10.405 20.6446 10.4555 20.848 10.5355L20.8479 10.5355L20.8554 10.5383L26.3554 12.5983L26.3567 12.5988C26.7657 12.7507 27.1669 13.0843 27.4681 13.5205C27.7694 13.9566 27.9408 14.4518 27.9408 14.8901V22.9901C27.9408 23.2966 27.8371 23.687 27.6473 24.0665C27.4579 24.4454 27.2075 24.7638 26.9607 24.9502C26.9604 24.9504 26.9601 24.9506 26.9598 24.9508L21.4615 29.0596L21.4601 29.0606C21.0768 29.3491 20.5477 29.5076 19.9958 29.5076C19.4438 29.5076 18.9148 29.3491 18.5314 29.0606L18.5301 29.0596L13.0301 24.9496Z" fill="#2EB955" stroke="#2EB955"/>
<path d="M18.3067 20.7737L18.6602 21.1272L19.0138 20.7737L22.7838 17.0037C22.8785 16.9089 23.0419 16.9089 23.1367 17.0037C23.2314 17.0984 23.2314 17.2618 23.1367 17.3566L18.8367 21.6566C18.7854 21.7079 18.7248 21.7301 18.6602 21.7301C18.5957 21.7301 18.5351 21.7079 18.4838 21.6566L16.8738 20.0466C16.779 19.9518 16.779 19.7884 16.8738 19.6937C16.9685 19.5989 17.1319 19.5989 17.2267 19.6937L18.3067 20.7737Z" fill="#2EB955" stroke="#2EB955"/>
</svg>
