<svg width="16" height="16" viewBox="0 0 16 16" fill="none" xmlns="http://www.w3.org/2000/svg">
<path opacity="1" d="M10.794 1.33331H5.20732C2.78065 1.33331 1.33398 2.77998 1.33398 5.20665V10.7933C1.33398 13.22 2.78065 14.6666 5.20732 14.6666H10.794C13.2207 14.6666 14.6673 13.22 14.6673 10.7933V5.20665C14.6673 2.77998 13.2207 1.33331 10.794 1.33331Z" fill="#ffffff"/>
<path d="M12.207 5.91333C12.207 6.18666 11.987 6.41333 11.707 6.41333H8.20703C7.9337 6.41333 7.70703 6.18666 7.70703 5.91333C7.70703 5.64 7.9337 5.41333 8.20703 5.41333H11.707C11.987 5.41333 12.207 5.64 12.207 5.91333Z" fill="#006B33"/>
<path d="M6.64768 5.26664L5.14768 6.76664C5.04768 6.86664 4.92102 6.91331 4.79435 6.91331C4.66768 6.91331 4.53435 6.86664 4.44102 6.76664L3.94102 6.26664C3.74102 6.07331 3.74102 5.75331 3.94102 5.55998C4.13435 5.36665 4.44768 5.36665 4.64768 5.55998L4.79435 5.70664L5.94102 4.55998C6.13435 4.36664 6.44768 4.36664 6.64768 4.55998C6.84102 4.75331 6.84102 5.07331 6.64768 5.26664Z" fill="#006B33"/>
<path d="M12.207 10.58C12.207 10.8533 11.987 11.08 11.707 11.08H8.20703C7.9337 11.08 7.70703 10.8533 7.70703 10.58C7.70703 10.3066 7.9337 10.08 8.20703 10.08H11.707C11.987 10.08 12.207 10.3066 12.207 10.58Z" fill="#006B33"/>
<path d="M6.64768 9.93333L5.14768 11.4333C5.04768 11.5333 4.92102 11.58 4.79435 11.58C4.66768 11.58 4.53435 11.5333 4.44102 11.4333L3.94102 10.9333C3.74102 10.74 3.74102 10.42 3.94102 10.2267C4.13435 10.0333 4.44768 10.0333 4.64768 10.2267L4.79435 10.3733L5.94102 9.22667C6.13435 9.03333 6.44768 9.03333 6.64768 9.22667C6.84102 9.42 6.84102 9.74 6.64768 9.93333Z" fill="#006B33"/>
</svg>