<svg width="20" height="20" viewBox="0 0 20 20" fill="none" xmlns="http://www.w3.org/2000/svg">
<path d="M17.5574 4.35842C16.2157 4.22508 14.8741 4.12508 13.5241 4.05008V4.04175L13.3407 2.95841C13.2157 2.19175 13.0324 1.04175 11.0824 1.04175H8.89907C6.95741 1.04175 6.77407 2.14175 6.64074 2.95008L6.46574 4.01675C5.69074 4.06675 4.91574 4.11675 4.14074 4.19175L2.44074 4.35842C2.09074 4.39175 1.84074 4.70008 1.87407 5.04175C1.90741 5.38342 2.20741 5.63342 2.55741 5.60008L4.25741 5.43342C8.62407 5.00008 13.0241 5.16675 17.4407 5.60842C17.4657 5.60842 17.4824 5.60842 17.5074 5.60842C17.8241 5.60842 18.0991 5.36675 18.1324 5.04175C18.1574 4.70008 17.9074 4.39175 17.5574 4.35842Z" fill="#B00020"/>
<path opacity="0.3991" d="M16.0245 6.78325C15.8245 6.57492 15.5495 6.45825 15.2661 6.45825H4.7328C4.44947 6.45825 4.16613 6.57492 3.97447 6.78325C3.7828 6.99159 3.67447 7.27492 3.69113 7.56659L4.2078 16.1166C4.29947 17.3833 4.41613 18.9666 7.32447 18.9666H12.6745C15.5828 18.9666 15.6995 17.3916 15.7911 16.1166L16.3078 7.57492C16.3245 7.27492 16.2161 6.99159 16.0245 6.78325Z" fill="#B00020"/>
<path fill-rule="evenodd" clip-rule="evenodd" d="M7.98242 14.1667C7.98242 13.8216 8.26224 13.5417 8.60742 13.5417H11.3824C11.7276 13.5417 12.0074 13.8216 12.0074 14.1667C12.0074 14.5119 11.7276 14.7917 11.3824 14.7917H8.60742C8.26224 14.7917 7.98242 14.5119 7.98242 14.1667Z" fill="#B00020"/>
<path fill-rule="evenodd" clip-rule="evenodd" d="M7.29102 10.8333C7.29102 10.4881 7.57084 10.2083 7.91602 10.2083H12.0827C12.4279 10.2083 12.7077 10.4881 12.7077 10.8333C12.7077 11.1784 12.4279 11.4583 12.0827 11.4583H7.91602C7.57084 11.4583 7.29102 11.1784 7.29102 10.8333Z" fill="#B00020"/>
</svg>
