<svg width="16" height="16" viewBox="0 0 16 16" fill="none" xmlns="http://www.w3.org/2000/svg">
<path d="M10.6667 15.1667H5.33333C1.5 15.1667 1.5 13.1333 1.5 11.3333V10.6667C1.5 9.18 1.5 7.5 4.66667 7.5C5.46 7.5 5.75333 7.69333 6.16667 8C6.18667 8.02 6.21333 8.03333 6.23333 8.06L6.91333 8.78C7.48667 9.38667 8.52667 9.38667 9.1 8.78L9.78 8.06C9.8 8.04 9.82 8.02 9.84667 8C10.26 7.68667 10.5533 7.5 11.3467 7.5C14.5133 7.5 14.5133 9.18 14.5133 10.6667V11.3333C14.5 13.88 13.2133 15.1667 10.6667 15.1667ZM4.66667 8.5C2.5 8.5 2.5 9.18 2.5 10.6667V11.3333C2.5 13.16 2.5 14.1667 5.33333 14.1667H10.6667C12.6533 14.1667 13.5 13.32 13.5 11.3333V10.6667C13.5 9.18 13.5 8.5 11.3333 8.5C10.8533 8.5 10.7533 8.56 10.4667 8.77333L9.82 9.46C9.34 9.96667 8.69333 10.2467 8 10.2467C7.30667 10.2467 6.66 9.96667 6.18 9.46L5.53333 8.77333C5.24667 8.56 5.14667 8.5 4.66667 8.5Z" fill="#4D5154"/>
<path d="M12.6673 8.49992C12.394 8.49992 12.1673 8.27325 12.1673 7.99992V3.99992C12.1673 2.51325 12.1673 1.83325 10.0007 1.83325H6.00065C3.83398 1.83325 3.83398 2.51325 3.83398 3.99992V7.99992C3.83398 8.27325 3.60732 8.49992 3.33398 8.49992C3.06065 8.49992 2.83398 8.27325 2.83398 7.99992V3.99992C2.83398 2.51325 2.83398 0.833252 6.00065 0.833252H10.0007C13.1673 0.833252 13.1673 2.51325 13.1673 3.99992V7.99992C13.1673 8.27325 12.9407 8.49992 12.6673 8.49992Z" fill="#4D5154"/>
<path d="M9.2532 6.65332H7.0332C6.75987 6.65332 6.5332 6.42665 6.5332 6.15332C6.5332 5.87999 6.75987 5.65332 7.0332 5.65332H9.2532C9.52654 5.65332 9.7532 5.87999 9.7532 6.15332C9.7532 6.42665 9.5332 6.65332 9.2532 6.65332Z" fill="#4D5154"/>
<path d="M9.8138 4.65332H6.48047C6.20714 4.65332 5.98047 4.42665 5.98047 4.15332C5.98047 3.87999 6.20714 3.65332 6.48047 3.65332H9.8138C10.0871 3.65332 10.3138 3.87999 10.3138 4.15332C10.3138 4.42665 10.0938 4.65332 9.8138 4.65332Z" fill="#4D5154"/>
</svg>
