<svg width="21" height="20" viewBox="0 0 21 20" fill="none" xmlns="http://www.w3.org/2000/svg">
<path d="M12.5253 15.6834C12.3669 15.6834 12.2086 15.6251 12.0836 15.5001C11.8419 15.2584 11.8419 14.8584 12.0836 14.6168L16.7003 10.0001L12.0836 5.38343C11.8419 5.14176 11.8419 4.74176 12.0836 4.5001C12.3253 4.25843 12.7253 4.25843 12.9669 4.5001L18.0253 9.55843C18.2669 9.8001 18.2669 10.2001 18.0253 10.4418L12.9669 15.5001C12.8419 15.6251 12.6836 15.6834 12.5253 15.6834Z" fill="white"/>
<path d="M17.443 10.625H3.41797C3.0763 10.625 2.79297 10.3417 2.79297 10C2.79297 9.65833 3.0763 9.375 3.41797 9.375H17.443C17.7846 9.375 18.068 9.65833 18.068 10C18.068 10.3417 17.7846 10.625 17.443 10.625Z" fill="white"/>
</svg>
